<?xml version="1.0" standalone="no"?>
<!DOCTYPE svg PUBLIC "-//W3C//DTD SVG 20010904//EN"
 "http://www.w3.org/TR/2001/REC-SVG-20010904/DTD/svg10.dtd">
<svg version="1.0" xmlns="http://www.w3.org/2000/svg"
 width="323.000000pt" height="323.000000pt" viewBox="0 0 323.000000 323.000000"
 preserveAspectRatio="xMidYMid meet">
<metadata>
Created by potrace 1.14, written by Peter Selinger 2001-2017
</metadata>
<g transform="translate(0.000000,323.000000) scale(0.100000,-0.100000)"
fill="#000000" stroke="none">
<path d="M1035 2778 c-303 -39 -564 -302 -601 -606 -4 -31 -7 -300 -6 -597 0
-511 2 -544 21 -618 69 -263 300 -482 554 -525 23 -4 305 -7 627 -7 l585 0 77
26 c204 70 357 208 441 396 56 127 59 159 59 744 1 600 0 617 -47 740 -80 209
-257 367 -481 430 -77 22 -92 23 -624 24 -300 0 -572 -3 -605 -7z"/>
<path d="M0 8 c0 -4 16 -8 37 -8 20 0 33 3 29 8 -10 10 -66 10 -66 0z"/>
<path d="M2974 8 c-3 -4 45 -8 105 -8 61 0 111 4 111 8 0 11 -209 11 -216 0z"/>
</g>
</svg>
