<svg width="428" height="127" viewBox="0 0 428 127" fill="none" xmlns="http://www.w3.org/2000/svg">
    <rect width="427.395" height="127" fill="#ED1C24"/>
    <g clip-path="url(#clip0_2543:16720)">
    <path fill-rule="evenodd" clip-rule="evenodd" d="M279.542 21.6167H267.693V23.6596H265.65V71.4634C265.65 72.9169 265.578 73.6748 265.259 74.2045C264.951 74.7156 264.363 75.0848 263.055 75.5755L263.054 75.5759L241.543 83.7101V91.0752H301.196V66.5606C301.196 65.7224 300.881 64.4815 299.953 63.4035C299.067 62.373 297.645 61.5176 295.476 61.284V45.723H292.616V33.4656H290.573V31.4226H284.853V33.4656H282.81V45.723H281.584V23.6596H279.542V21.6167Z" fill="#FDFDFD"/>
    <path fill-rule="evenodd" clip-rule="evenodd" d="M245.22 74.7329C243.78 74.7329 242.84 75.3423 242.274 76.1286C241.723 76.8939 241.543 77.8001 241.543 78.4102V82.6906L248.489 79.9123V74.7329H245.22Z" fill="#FDFDFD"/>
    <path fill-rule="evenodd" clip-rule="evenodd" d="M259.635 41.6988L257.32 36.1421L255.005 41.6988H252.008V65.7497H249.557V79.7034L263.206 74.3501L263.223 74.342C263.681 74.1131 263.981 73.8473 264.135 73.4646C264.266 73.1348 264.266 72.7572 264.266 72.3902L264.266 72.3423V65.805H262.632V41.6988H259.635Z" fill="#FDFDFD"/>
    <path d="M44.3954 36.2783V90.9953H36.0848V36.2783H44.3954Z" fill="#FDFDFD"/>
    <path d="M58.6096 66.9474V90.9963H50.2991V36.2793H58.6096V58.1956H64.2725V36.2793H72.5831V90.9963H64.2725V66.9474H58.6096Z" fill="#FDFDFD"/>
    <path d="M77.7113 36.2793H99.9216V44.2221H92.9352V90.9963H84.698V44.2221H77.7113V36.2793Z" fill="#FDFDFD"/>
    <path d="M104.953 36.2793H123.854V44.2221H113.263V58.5633H121.574V66.8738H113.263V82.686H124.295V90.9963H104.953V36.2793Z" fill="#FDFDFD"/>
    <path d="M142.533 68.2712H137.679V90.9963H129.369V36.2793H142.533C145.524 36.2793 147.681 36.9902 149.005 38.4121C150.378 39.7849 151.064 42.0893 151.064 45.3253V58.2691C151.064 64.9371 148.221 68.2712 142.533 68.2712ZM137.679 43.7073V60.4019H139.812C140.989 60.4019 141.749 60.0832 142.092 59.4458C142.484 58.7594 142.68 57.7543 142.68 56.4305V47.4581C142.68 46.2323 142.484 45.3007 142.092 44.6634C141.7 44.026 140.94 43.7073 139.812 43.7073H137.679Z" fill="#FDFDFD"/>
    <path d="M156.367 90.9963V36.2793H173.062V44.2221H164.678V90.9963H156.367Z" fill="#FDFDFD"/>
    <path d="M192.101 90.9963L190.998 80.7004H184.894L183.865 90.9963H176.436L183.129 36.2793H192.984L200.118 90.9963H192.101ZM187.909 52.312L185.777 72.5368H190.116L187.909 52.312Z" fill="#FDFDFD"/>
    <path d="M219.416 90.9963V44.2221H214.562C214.562 63.785 214.317 76.508 213.827 82.3917C213.63 85.3333 212.87 87.5153 211.547 88.9371C210.272 90.3102 208.139 90.9963 205.148 90.9963H203.089V82.5388H203.678C204.609 82.5388 205.247 82.2694 205.59 81.73C205.933 81.1906 206.153 80.2346 206.251 78.8615C206.595 75.5768 206.766 61.3825 206.766 36.2793H227.727V90.9963H219.416Z" fill="#FDFDFD"/>
    <path d="M314.637 90.802V36.085H334.715V44.0278H322.948V57.2658H327.802C333.489 57.2658 336.333 60.6244 336.333 67.3414V81.2414C336.333 84.5265 335.646 86.9531 334.274 88.5221C332.9 90.0423 330.743 90.802 327.802 90.802H314.637ZM322.948 82.8591H325.08C326.208 82.8591 326.968 82.5404 327.36 81.9031C327.753 81.2657 327.949 80.3341 327.949 79.1086V69.1801C327.949 67.8562 327.753 66.8756 327.36 66.2382C327.017 65.5518 326.257 65.2086 325.08 65.2086H322.948V82.8591Z" fill="#FDFDFD"/>
    <path d="M361.369 36.085L353.426 83.5949C352.985 86.2914 352.299 88.179 351.367 89.2578C350.436 90.2874 348.916 90.802 346.807 90.802H341.439V82.3445H343.351C343.792 82.3445 344.135 82.271 344.38 82.1238C344.675 81.9767 344.871 81.7808 344.969 81.5357C345.067 81.2906 345.165 80.9714 345.263 80.5797L345.484 78.8879C345.631 78.0055 345.533 76.5344 345.19 74.4752L339.012 36.085H347.469L350.558 60.2811L353.5 36.085H361.369Z" fill="#FDFDFD"/>
    <path d="M383.493 90.802H369.078H361.503V82.4917H363.342C364.273 80.5797 364.959 78.2749 365.401 75.5784C366.136 70.6755 366.504 57.511 366.504 36.085H387.391V82.4917H391.068V90.802H383.493ZM373.197 75.7991C372.902 78.2013 372.363 80.4325 371.578 82.4917H379.08V44.0278H374.3C374.3 60.0115 373.932 70.602 373.197 75.7991Z" fill="#FDFDFD"/>
    </g>
    <defs>
    <clipPath id="clip0_2543:16720">
    <rect width="355.225" height="69.8266" fill="white" transform="translate(36.0851 21.5571)"/>
    </clipPath>
    </defs>
</svg>
